<?xml version="1.0" standalone="no"?>
<!DOCTYPE svg PUBLIC "-//W3C//DTD SVG 20010904//EN"
 "http://www.w3.org/TR/2001/REC-SVG-20010904/DTD/svg10.dtd">
<svg version="1.0" xmlns="http://www.w3.org/2000/svg"
 width="407.000000pt" height="280.000000pt" viewBox="0 0 407.000000 280.000000"
 preserveAspectRatio="xMidYMid meet">
<metadata>
Created by potrace 1.16, written by Peter Selinger 2001-2019
</metadata>
<g transform="translate(0.000000,280.000000) scale(0.100000,-0.100000)"
fill="#000000" stroke="none">
<path d="M1383 2339 c-85 -54 -77 -187 14 -225 118 -50 223 56 174 174 -28 66
-124 92 -188 51z m118 -42 c30 -23 41 -56 30 -89 -14 -39 -38 -57 -77 -58 -40
0 -77 39 -77 82 0 57 79 100 124 65z"/>
<path d="M1741 2342 c-37 -20 -71 -72 -71 -109 0 -12 5 -34 10 -49 10 -26 6
-32 -66 -105 l-77 -78 -61 5 c-73 6 -119 -16 -142 -71 -19 -46 -18 -73 4 -114
36 -67 121 -90 183 -48 51 34 70 81 57 141 l-10 48 77 78 76 77 40 -11 c27 -7
51 -7 78 0 l40 11 75 -76 76 -76 -6 -66 c-7 -65 -6 -67 28 -104 60 -66 162
-57 208 18 65 106 -45 232 -163 188 -22 -8 -32 -1 -105 72 -63 63 -79 85 -72
97 17 26 11 93 -10 128 -21 34 -72 62 -112 62 -13 0 -39 -8 -57 -18z m114 -57
c50 -49 15 -135 -55 -135 -40 0 -80 39 -80 78 0 70 86 107 135 57z m-348 -347
c29 -27 32 -87 6 -111 -45 -40 -112 -26 -133 29 -11 28 2 72 27 92 26 19 74
14 100 -10z m698 -3 c27 -26 31 -51 14 -88 -12 -26 -47 -47 -80 -47 -31 0 -69
44 -69 81 0 72 84 106 135 54z"/>
<path d="M2083 2340 c-57 -34 -79 -112 -50 -170 28 -55 108 -84 170 -61 22 8
32 1 102 -69 l78 -78 -11 -42 c-6 -26 -7 -53 -1 -73 5 -18 9 -36 9 -42 0 -5
-36 -43 -79 -83 l-80 -72 -43 11 c-37 10 -49 9 -82 -6 -55 -26 -78 -68 -73
-133 5 -64 31 -96 93 -111 83 -21 159 35 159 117 0 26 -4 55 -9 65 -12 26 144
183 171 172 32 -14 62 -17 88 -11 39 10 94 64 100 99 9 49 -15 108 -55 135
-30 21 -43 23 -96 19 l-61 -6 -77 78 c-69 70 -77 81 -67 99 26 49 1 130 -51
162 -42 25 -94 26 -135 0z m108 -43 c43 -33 49 -83 14 -121 -50 -54 -135 -19
-135 56 0 58 76 99 121 65z m349 -347 c24 -13 41 -65 31 -93 -21 -53 -84 -71
-124 -35 -26 23 -30 34 -28 76 2 49 71 79 121 52z m-332 -366 c26 -30 28 -61
6 -92 -46 -66 -143 -36 -143 43 0 36 17 61 50 74 32 13 59 5 87 -25z"/>
<path d="M2444 2350 c-11 -4 -33 -22 -47 -40 -50 -59 -30 -162 39 -195 75 -36
157 -3 184 73 13 37 13 47 0 84 -25 71 -105 107 -176 78z m98 -54 c27 -20 39
-62 27 -93 -32 -84 -149 -63 -151 27 -2 60 77 102 124 66z"/>
<path d="M1740 1997 c-33 -17 -70 -74 -70 -108 0 -15 5 -40 10 -55 10 -26 7
-32 -69 -108 l-80 -80 -38 12 c-101 30 -196 -64 -163 -161 22 -69 92 -105 164
-86 l40 11 78 -80 c77 -78 78 -80 67 -111 -46 -131 117 -232 215 -134 32 32
40 61 33 115 -10 75 -89 123 -165 100 l-37 -12 -78 79 c-78 78 -79 78 -69 114
7 24 7 49 0 77 l-11 42 79 79 79 79 37 -12 c51 -15 108 2 143 44 24 28 27 38
23 87 -4 47 -10 59 -41 88 -30 27 -45 33 -79 33 -24 0 -54 -6 -68 -13z m115
-62 c50 -49 15 -135 -55 -135 -39 0 -80 42 -80 82 0 39 40 78 80 78 19 0 40
-9 55 -25z m-366 -330 c16 -8 34 -27 40 -43 38 -92 -97 -152 -143 -63 -20 38
-5 85 33 106 33 18 36 18 70 0z m366 -360 c51 -50 18 -135 -52 -135 -36 0 -83
36 -83 63 0 81 83 125 135 72z"/>
<path d="M1765 1663 c-90 -23 -124 -146 -59 -214 38 -39 84 -54 129 -39 43 14
54 8 132 -73 l63 -65 -6 -60 c-11 -100 35 -152 132 -152 39 0 51 5 79 33 41
41 52 78 37 131 l-11 41 78 78 78 79 40 -12 c107 -32 205 78 157 176 -27 54
-64 77 -118 76 -87 -1 -134 -60 -123 -155 l7 -53 -79 -78 c-69 -69 -81 -77
-99 -67 -11 6 -35 11 -52 11 -17 0 -41 -5 -52 -11 -18 -10 -29 -2 -99 67 l-78
77 5 61 c4 50 2 67 -16 94 -30 48 -87 69 -145 55z m74 -58 c41 -20 54 -71 31
-115 -13 -24 -65 -41 -93 -31 -69 26 -71 124 -4 151 31 12 34 12 66 -5z m715
-16 c13 -12 20 -31 19 -53 -1 -43 -7 -52 -44 -71 -25 -13 -33 -14 -63 -1 -65
27 -68 113 -4 141 37 16 64 11 92 -16z m-349 -346 c72 -72 -38 -181 -112 -111
-38 36 -27 109 20 128 39 15 64 11 92 -17z"/>
<path d="M1410 1313 c-8 -3 -29 -19 -47 -36 -84 -79 -26 -217 92 -217 46 0 98
28 116 62 18 33 15 102 -5 133 -33 51 -104 77 -156 58z m93 -63 c33 -26 41
-63 23 -99 -17 -32 -34 -41 -77 -41 -69 0 -97 89 -43 138 31 27 63 28 97 2z"/>
<path d="M2434 1301 c-46 -28 -64 -59 -64 -111 0 -82 49 -129 134 -130 41 0
53 5 81 33 83 83 39 212 -76 224 -32 3 -52 -1 -75 -16z m104 -47 c32 -22 43
-57 31 -94 -13 -35 -35 -50 -76 -50 -71 0 -101 89 -47 138 30 26 61 28 92 6z"/>
<path d="M170 521 l0 -131 30 0 c29 0 30 1 30 50 l0 50 80 0 80 0 0 -50 c0
-47 2 -50 25 -50 l25 0 0 130 0 130 -25 0 c-24 0 -25 -3 -25 -55 l0 -55 -79 0
-80 0 -3 53 c-3 48 -5 52 -30 55 l-28 3 0 -130z"/>
<path d="M540 530 c-33 -66 -60 -124 -60 -130 0 -5 11 -10 25 -10 17 0 29 8
37 25 10 23 16 25 83 25 67 0 73 -2 83 -25 8 -17 20 -25 37 -25 33 0 31 8 -41
153 -47 93 -57 107 -79 107 -22 0 -32 -15 -85 -120z"/>
<path d="M810 521 l0 -131 25 0 c25 0 25 1 25 92 0 90 0 91 19 74 11 -10 46
-51 78 -92 51 -65 62 -74 90 -74 l33 0 0 131 0 130 -27 -3 c-28 -3 -28 -4 -33
-90 l-5 -87 -70 87 c-59 73 -76 88 -103 90 l-32 3 0 -130z"/>
<path d="M1172 525 c-34 -69 -62 -127 -62 -130 0 -3 13 -5 28 -5 21 0 32 7 40
25 11 23 17 25 82 25 65 0 71 -2 82 -25 8 -18 19 -25 40 -25 28 0 28 0 15 33
-8 17 -36 76 -63 130 -42 85 -52 97 -74 97 -23 0 -32 -14 -88 -125z"/>
<path d="M1570 630 c-17 -17 -20 -33 -20 -110 0 -123 7 -130 133 -130 111 0
137 12 137 66 0 29 -3 34 -24 34 -18 0 -25 -6 -28 -22 -3 -21 -9 -23 -77 -26
-53 -2 -77 1 -82 10 -5 7 -9 40 -9 73 0 33 4 66 9 73 5 9 29 12 82 10 68 -3
74 -5 77 -25 3 -17 10 -23 28 -23 20 0 24 5 24 29 0 48 -30 61 -137 61 -80 0
-96 -3 -113 -20z"/>
<path d="M1913 635 c-21 -15 -23 -24 -23 -115 0 -95 1 -100 25 -116 33 -22
231 -17 245 6 13 20 13 200 0 220 -14 23 -217 27 -247 5z m202 -115 l0 -75
-85 0 -85 0 -3 54 c-2 30 -1 65 3 78 5 23 9 24 88 21 l82 -3 0 -75z"/>
<path d="M2250 521 l0 -131 25 0 c25 0 25 1 25 92 0 90 0 91 19 74 11 -10 46
-51 78 -92 51 -65 62 -74 90 -74 l33 0 0 131 0 130 -27 -3 c-28 -3 -28 -4 -33
-90 l-5 -87 -70 87 c-59 73 -76 88 -103 90 l-32 3 0 -130z"/>
<path d="M2590 520 l0 -130 25 0 c25 0 25 1 25 90 0 50 4 90 8 90 5 0 41 -40
80 -90 62 -77 77 -90 102 -90 l30 0 0 130 0 130 -25 0 c-24 0 -24 -2 -27 -92
l-3 -93 -74 93 c-67 83 -78 92 -108 92 l-33 0 0 -130z"/>
<path d="M2940 520 l0 -130 115 0 c108 0 115 1 115 20 0 19 -7 20 -90 20 l-90
0 0 35 0 35 70 0 c63 0 70 2 70 20 0 18 -7 20 -70 20 l-70 0 0 35 0 35 90 0
c83 0 90 1 90 20 0 19 -7 20 -115 20 l-115 0 0 -130z"/>
<path d="M3252 634 c-20 -14 -22 -23 -22 -114 0 -126 4 -130 137 -130 105 0
133 15 133 70 0 27 -3 30 -29 30 -23 0 -30 -5 -33 -22 -3 -22 -8 -23 -78 -23
l-75 0 0 80 0 80 75 0 c70 0 75 -1 78 -22 3 -18 10 -23 33 -23 24 0 29 4 29
25 0 50 -30 65 -133 65 -68 0 -99 -4 -115 -16z"/>
<path d="M3540 625 c0 -23 3 -25 50 -25 l50 0 0 -105 0 -105 30 0 30 0 0 104
0 105 53 3 c44 3 52 6 52 23 0 19 -8 20 -132 23 l-133 3 0 -26z"/>
</g>
</svg>
